<svg width="1065" height="964" viewBox="0 0 1065 964" fill="none" xmlns="http://www.w3.org/2000/svg">
<g clip-path="url(#clip0_737_2515)">
<path d="M857.168 353.975L997.542 319.701L635.193 776.656L857.168 353.975ZM66.9726 309.31L195.866 344.312L410.677 762.741L66.9726 309.31ZM525.461 37.5306C705.282 37.5306 809.955 60.3509 835.593 75.0572C818.447 84.8975 765.89 98.3552 679.19 106.192L678.945 106.18L678.628 106.244C635.816 110.095 584.752 112.584 525.461 112.584C345.64 112.584 240.967 89.7675 215.321 75.0572C240.967 60.3509 345.64 37.5306 525.461 37.5306ZM874.852 121.99L1011.68 277.617L864.584 313.534L874.852 121.99ZM551.059 383.063L811.858 359.536L545.177 867.327L551.059 383.063ZM513.527 382.593L507.613 869.387L241.517 351.056L513.527 382.593ZM188.354 303.38L52.3927 266.46L176.597 122.131L188.354 303.38ZM224.657 283.282L213.771 115.33C231.603 122.199 255.643 128.097 286.795 133.36C307.229 136.817 329.815 139.768 354.004 142.193L224.657 283.282ZM496.442 342.834L247.44 313.967L386.376 162.42L496.442 342.834ZM532.54 329.938L421.129 147.32C454.421 149.147 489.507 150.114 525.461 150.114C566.984 150.114 607.359 148.834 645.123 146.405L532.54 329.938ZM820.636 321.066L568.04 343.854L682.719 156.903L820.636 321.066ZM829.177 272.884L717.489 139.945C733.972 138.006 749.612 135.814 764.131 133.36C795.564 128.049 819.748 122.091 837.629 115.141L829.177 272.884ZM1060.33 276.112L876.056 66.5297C869.415 43.9061 834.91 28.7181 764.131 16.7539C700.21 5.95399 615.45 0 525.461 0C435.472 0 350.712 5.95399 286.795 16.7539C215.895 28.7341 181.403 43.9543 174.846 66.6381L4.53737 264.533C-1.22872 271.238 -1.53389 281.058 3.81059 288.104L510.419 956.46C511.439 957.825 512.636 959.038 513.965 960.069L513.997 960.098L514.041 960.126L514.049 960.134L514.077 960.154L514.106 960.182L514.142 960.198C514.668 960.603 515.21 960.969 515.776 961.306H515.78L515.816 961.334L515.856 961.354L515.884 961.374L515.896 961.386C518.711 963.048 521.972 963.984 525.373 964H525.461C528.139 964 530.725 963.434 533.086 962.382H533.094L533.138 962.362L533.146 962.354C534.833 961.599 536.403 960.591 537.804 959.379L537.832 959.347C538.712 958.576 539.523 957.721 540.25 956.789L1060.94 300.156C1066.57 293.046 1066.32 282.925 1060.33 276.112Z" fill="url(#paint0_linear_737_2515)"/>
</g>
<defs>
<linearGradient id="paint0_linear_737_2515" x1="1167.76" y1="-177.579" x2="-225.56" y2="1499.98" gradientUnits="userSpaceOnUse">
<stop stop-color="#0026BD"/>
<stop offset="1" stop-color="#FF4489"/>
</linearGradient>
<clipPath id="clip0_737_2515">
<rect width="1065" height="964" fill="white"/>
</clipPath>
</defs>
</svg>
