<svg width="86" height="84" viewBox="0 0 86 84" fill="none" xmlns="http://www.w3.org/2000/svg">
<rect x="0.429932" width="85" height="84" rx="42" fill="#EEF1FF"/>
<path d="M36.305 28.75H47.3467M36.305 28.75V34.2709H47.3467V28.75M36.305 28.75V25.4375C36.305 22.125 39.6175 19.9167 42.93 19.9167H55.0758C55.0758 19.9167 47.3467 22.125 47.3467 26.5417V28.75M30.7842 36.4792C30.7842 35.8935 31.0168 35.3318 31.431 34.9177C31.8451 34.5035 32.4068 34.2709 32.9925 34.2709H50.6592C51.2449 34.2709 51.8066 34.5035 52.2207 34.9177C52.6349 35.3318 52.8675 35.8935 52.8675 36.4792V57.4584C52.8675 57.4584 52.8675 64.0834 46.2425 64.0834H37.4092C30.7842 64.0834 30.7842 57.4584 30.7842 57.4584V36.4792Z" stroke="url(#paint0_linear_156_5885)" stroke-width="2" stroke-linecap="round" stroke-linejoin="round"/>
<defs>
<linearGradient id="paint0_linear_156_5885" x1="57.4198" y1="11.7807" x2="0.146918" y2="46.1101" gradientUnits="userSpaceOnUse">
<stop stop-color="#0026BD"/>
<stop offset="1" stop-color="#FF4489"/>
</linearGradient>
</defs>
</svg>
