<svg width="86" height="84" viewBox="0 0 86 84" fill="none" xmlns="http://www.w3.org/2000/svg">
<rect x="0.430054" width="85" height="84" rx="42" fill="#EEF1FF"/>
<path d="M20.5366 26.8051L19.0743 34.6756C18.4439 38.0865 18.9567 41.6011 20.5366 44.6779H26.417V26.8051H20.5366ZM28.4451 26.8051V40.1261H28.7793C29.4937 40.1261 30.0699 39.5385 30.0699 38.824V26.8051H28.4451ZM32.1096 26.8051V38.824C32.1096 40.6562 30.623 42.1427 28.7793 42.1427H28.4451V51.5574H30.1621V44.6779H32.4207C32.4207 44.6779 33.2965 42.9148 33.9879 41.4859C34.5295 40.4258 35.6127 39.7459 36.8111 39.7459H46.0529C47.7814 39.7459 49.1873 41.1402 49.1873 42.8687V53.4127H16.4204L17.6384 61.3062H65.8732L67.0832 54.0349L64.6518 26.8051H32.1096ZM67.8438 29.5015C67.2791 29.5476 66.8643 30.0431 66.9219 30.5963L67.4174 36.0584C67.4635 36.6115 67.959 37.0263 68.5121 36.9802C69.0768 36.9342 69.4801 36.4271 69.434 35.874L68.95 30.4234C68.9039 29.9049 68.466 29.5015 67.9475 29.5015H67.8438ZM57.8414 29.5131C60.342 29.5131 62.3586 31.5297 62.3586 34.0302C62.3586 36.5308 60.342 38.5474 57.8414 38.5474C55.3408 38.5474 53.3242 36.5308 53.3242 34.0302C53.3242 31.5297 55.3408 29.5131 57.8414 29.5131ZM57.8414 31.5297C56.4701 31.5297 55.3408 32.659 55.3408 34.0302C55.3408 35.4131 56.4701 36.5308 57.8414 36.5308C59.2127 36.5308 60.342 35.4131 60.342 34.0302C60.342 32.659 59.2127 31.5297 57.8414 31.5297ZM57.8414 41.8892C60.9066 41.8892 63.3957 44.3898 63.3957 47.4435C63.3957 50.5088 60.9066 52.9978 57.8414 52.9978C54.7762 52.9978 52.2871 50.5088 52.2871 47.4435C52.2871 44.3898 54.7762 41.8892 57.8414 41.8892ZM57.8414 43.9174C55.8939 43.9174 54.3152 45.4961 54.3152 47.4435C54.3152 49.391 55.8939 50.9582 57.8414 50.9582C59.7889 50.9582 61.3561 49.391 61.3561 47.4435C61.3561 45.4961 59.7889 43.9174 57.8414 43.9174ZM24.1135 46.1644V48.1926H26.4285V46.1644H24.1135ZM17.6384 63.5763V66.6301H65.8502V63.5763H17.6384Z" fill="url(#paint0_linear_156_5983)"/>
<defs>
<linearGradient id="paint0_linear_156_5983" x1="74.5533" y1="19.4689" x2="19.8302" y2="98.8625" gradientUnits="userSpaceOnUse">
<stop stop-color="#0026BD"/>
<stop offset="1" stop-color="#FF4489"/>
</linearGradient>
</defs>
</svg>
