<svg width="86" height="84" viewBox="0 0 86 84" fill="none" xmlns="http://www.w3.org/2000/svg">
<rect x="0.430054" width="85" height="84" rx="42" fill="#EEF1FF"/>
<path d="M27.4717 64.0833C24.5567 64.0833 23.3863 58.8717 23.1433 56.7958C22.8818 54.7805 23.1246 52.7317 23.85 50.8333C24.1688 49.93 24.7172 49.1251 25.4412 48.4979C26.1653 47.8707 27.04 47.4426 27.9796 47.2558C30.5633 46.8142 32.3963 48.36 34.7371 48.89C35.1768 49.0311 35.6456 49.0559 36.0977 48.9619C36.5499 48.8678 36.9699 48.6582 37.3169 48.3535C37.6639 48.0488 37.926 47.6593 38.0776 47.2231C38.2293 46.7869 38.2653 46.3188 38.1821 45.8646C37.2104 42.0662 30.2983 42 27.4717 42C27.4717 37.8925 31.9767 37.3625 35.2008 37.6717C37.1136 37.8564 38.9969 38.2716 40.81 38.9083C41.9142 39.2837 43.195 40.2333 44.4096 40.145C46.2425 39.9904 46.6179 38.0912 45.8229 36.7C43.9017 33.4317 38.4471 33.1667 35.2008 33.1667C35.2008 28.75 39.0213 27.9108 42.6871 28.5733C44.5799 28.946 46.4245 29.5312 48.1859 30.3179C49.3121 30.8037 50.6592 31.7312 51.8958 31.3117C55.0758 30.34 51.7633 26.9392 50.35 26.1221C49.3581 25.5747 48.3057 25.1449 47.2142 24.8412C46.0217 24.4879 44.5642 24.6204 45.6463 23.2292C47.3383 21.7364 49.4376 20.7828 51.675 20.4908C55.8488 19.5192 61.6125 19.3425 62.6284 24.5983C62.9669 27.3732 62.301 30.1776 60.7513 32.5042C56.6362 39.5406 51.543 45.9573 45.6242 51.5621C42.4887 54.7762 39.0908 57.7235 35.4658 60.3733C33.2575 61.9633 30.3425 64.0833 27.4717 64.0833Z" fill="url(#paint0_linear_156_5928)"/>
<defs>
<linearGradient id="paint0_linear_156_5928" x1="66.5426" y1="11.8251" x2="1.67153" y2="75.3843" gradientUnits="userSpaceOnUse">
<stop stop-color="#0026BD"/>
<stop offset="1" stop-color="#FF4489"/>
</linearGradient>
</defs>
</svg>
