<svg width="86" height="84" viewBox="0 0 86 84" fill="none" xmlns="http://www.w3.org/2000/svg">
<rect x="0.429932" width="85" height="84" rx="42" fill="#EEF1FF"/>
<path d="M32.7215 34.3333C31.7007 34.3333 29.659 34.9458 29.659 37.3958C29.659 39.8458 31.7007 40.4583 32.7215 40.4583M22.5132 52.7083V58.8333C22.5132 59.9163 22.9434 60.9549 23.7092 61.7207C24.4749 62.4864 25.5135 62.9166 26.5965 62.9166H49.0548M22.5132 52.7083V30.25C22.5132 29.167 22.9434 28.1284 23.7092 27.3626C24.4749 26.5969 25.5135 26.1666 26.5965 26.1666H32.7215M22.5132 52.7083C25.3776 52.2306 29.9387 52.1101 34.6509 53.2044M49.0548 62.9166H55.1798C56.2628 62.9166 57.3014 62.4864 58.0672 61.7207C58.833 60.9549 59.2632 59.9163 59.2632 58.8333V46.5833M49.0548 62.9166C45.5758 57.2653 40.0164 54.4478 34.6509 53.2044M34.6509 53.2044C36.8865 50.6156 40.2246 48.2024 45.0552 46.5833M38.8465 38.4166V28.2083C38.8465 27.6668 39.0616 27.1475 39.4445 26.7646C39.8274 26.3817 40.3467 26.1666 40.8882 26.1666H42.9298L47.0132 22.0833H55.1798L59.2632 26.1666H61.3048C61.8463 26.1666 62.3656 26.3817 62.7485 26.7646C63.1314 27.1475 63.3465 27.6668 63.3465 28.2083V38.4166C63.3465 38.9581 63.1314 39.4774 62.7485 39.8603C62.3656 40.2432 61.8463 40.4583 61.3048 40.4583H40.8882C40.3467 40.4583 39.8274 40.2432 39.4445 39.8603C39.0616 39.4774 38.8465 38.9581 38.8465 38.4166Z" stroke="url(#paint0_linear_156_5895)" stroke-width="2" stroke-linecap="round" stroke-linejoin="round"/>
<path d="M51.0966 34.3333C52.2242 34.3333 53.1383 33.4192 53.1383 32.2917C53.1383 31.1641 52.2242 30.25 51.0966 30.25C49.969 30.25 49.0549 31.1641 49.0549 32.2917C49.0549 33.4192 49.969 34.3333 51.0966 34.3333Z" stroke="url(#paint1_linear_156_5895)" stroke-width="2" stroke-linecap="round" stroke-linejoin="round"/>
<defs>
<linearGradient id="paint0_linear_156_5895" x1="67.2866" y1="14.5614" x2="7.46932" y2="79.7514" gradientUnits="userSpaceOnUse">
<stop stop-color="#0026BD"/>
<stop offset="1" stop-color="#FF4489"/>
</linearGradient>
<linearGradient id="paint1_linear_156_5895" x1="53.5323" y1="29.4978" x2="47.5505" y2="36.0168" gradientUnits="userSpaceOnUse">
<stop stop-color="#0026BD"/>
<stop offset="1" stop-color="#FF4489"/>
</linearGradient>
</defs>
</svg>
