<svg width="86" height="84" viewBox="0 0 86 84" fill="none" xmlns="http://www.w3.org/2000/svg">
<rect x="0.430054" width="85" height="84" rx="42" fill="#EEF1FF"/>
<path d="M62.3457 29.68H24.5286C23.3124 29.68 22.3171 30.7862 22.3171 31.88C22.3171 32.9738 23.3124 34.0791 24.5286 34.0791H25.0627V38.4791H61.8652V34.0791H62.3457C63.5627 34.0791 64.5571 32.9738 64.5571 31.88C64.5571 30.7862 63.5627 29.68 62.3457 29.68ZM43.4371 36.2976C42.8264 36.2976 42.3319 35.7881 42.3319 35.1606C42.3319 34.5332 42.8264 34.0237 43.4371 34.0237C44.0487 34.0237 44.5424 34.5332 44.5424 35.1606C44.5424 35.7881 44.0487 36.2976 43.4371 36.2976ZM25.0627 47.2782H61.8652V40.24H25.0627V47.2782ZM43.4371 42.5491C44.0487 42.5491 44.5424 43.0578 44.5424 43.6852C44.5424 44.3135 44.0487 44.8222 43.4371 44.8222C42.8264 44.8222 42.3319 44.3135 42.3319 43.6852C42.331 43.0578 42.8264 42.5491 43.4371 42.5491ZM25.0627 53.3476V58.4639C25.0627 59.0887 25.1411 59.6009 25.7491 59.6009H30.1703C30.7783 59.6009 31.0538 59.0887 31.0538 58.4639V55.1991H55.8742V58.4639C55.8742 59.0887 56.0959 59.6009 56.7031 59.6009H61.1251C61.7315 59.6009 61.8643 59.0887 61.8643 58.4639V49.04H25.0627V53.3476ZM43.4371 51.0746C44.0487 51.0746 44.5424 51.5841 44.5424 52.2106C44.5424 52.8398 44.0487 53.3467 43.4371 53.3467C42.8264 53.3467 42.3319 52.8398 42.3319 52.2106C42.331 51.585 42.8264 51.0746 43.4371 51.0746Z" fill="url(#paint0_linear_156_5960)"/>
<defs>
<linearGradient id="paint0_linear_156_5960" x1="68.6329" y1="24.1683" x2="28.4285" y2="86.0238" gradientUnits="userSpaceOnUse">
<stop stop-color="#0026BD"/>
<stop offset="1" stop-color="#FF4489"/>
</linearGradient>
</defs>
</svg>
