<svg width="94" height="94" viewBox="0 0 94 94" fill="none" xmlns="http://www.w3.org/2000/svg">
<circle cx="47" cy="47" r="47" fill="url(#paint0_linear_159_2236)"/>
<path fill-rule="evenodd" clip-rule="evenodd" d="M47.4776 15.8652C47.3608 15.8106 47.244 15.7328 47.2206 15.686C47.1505 15.577 46.9402 15.5848 46.7455 15.7016C46.6598 15.7561 46.1847 16.0677 45.6863 16.3948C45.1878 16.7297 44.7517 17.0023 44.7205 17.0023C44.6893 17.0023 44.4868 17.1347 44.2688 17.2905C44.0507 17.454 43.6535 17.7266 43.3809 17.898C43.1161 18.0693 42.6565 18.3731 42.3684 18.5678C41.3714 19.2376 38.5131 21.1068 37.594 21.691C36.7295 22.2439 35.4444 23.0773 35.1407 23.2876C34.9771 23.4122 34.7123 23.5758 34.5565 23.6692C34.4085 23.7549 33.653 24.2456 32.882 24.7596C32.1109 25.2659 31.4333 25.7098 31.3632 25.7332C31.1997 25.8033 29.7199 26.7768 29.5563 26.9248C29.4784 26.9949 29.3927 27.0494 29.3694 27.0494C29.346 27.0494 28.9644 27.2831 28.536 27.5713C28.0999 27.8672 27.7104 28.1165 27.6637 28.132C27.6248 28.1476 27.43 28.2878 27.2275 28.4436C27.0328 28.5993 26.6901 28.8252 26.4721 28.9576C26.254 29.0822 26.0671 29.2302 26.0671 29.2847C26.0671 29.3315 26.215 29.5573 26.402 29.7832C26.5811 30.0091 26.9238 30.4608 27.1574 30.7801C27.8273 31.6914 29.642 34.0046 30.4676 34.9859C31.114 35.7492 31.6047 36.3723 32.1966 37.1745C32.438 37.4938 32.7574 37.9066 32.9131 38.0857C33.0689 38.2649 33.3104 38.5608 33.4506 38.7477C33.8633 39.2852 34.8291 40.5157 35.3665 41.1855C35.6391 41.5282 36.0753 42.0734 36.3323 42.3928C36.6855 42.8375 37.1321 43.3866 37.5059 43.8464C37.5773 43.9341 37.646 44.0186 37.7109 44.0984C37.7965 44.1997 37.9134 44.3321 37.9679 44.3866C38.0302 44.4489 38.3028 44.7838 38.5754 45.1421C38.848 45.4926 39.253 45.991 39.4633 46.2481C39.6023 46.412 39.9029 46.7786 40.2439 47.1944C40.4376 47.4306 40.6443 47.6827 40.8418 47.9226C41.3792 48.5846 42.0958 49.4647 42.4385 49.8697C43.2796 50.89 43.5834 51.2639 44.3155 52.1985C44.666 52.6424 45.1567 53.2577 45.4059 53.5615C45.6473 53.8652 46.3717 54.7765 47.0025 55.5865C47.6334 56.3887 48.3733 57.3233 48.6459 57.6504C49.2897 58.4154 49.4989 58.6795 49.9469 59.245L49.9855 59.2938C50.2036 59.5742 50.5307 59.9714 50.7254 60.1895C51.4498 61.015 51.5977 61.2098 51.6289 61.3266C51.6523 61.4668 51.3018 61.7861 50.3827 62.4481C50.0556 62.6818 49.6818 62.9544 49.5494 63.0556C48.0851 64.1538 47.1661 64.8236 47.1271 64.8236C47.096 64.8236 46.8545 64.6367 46.5819 64.4186C46.3171 64.1928 45.8031 63.7878 45.4448 63.5229C44.3622 62.7052 43.9494 62.378 42.1737 60.945C39.9305 59.1329 39.8466 59.0619 39.7612 59.0601C39.7555 59.06 39.7499 59.0601 39.7437 59.0601C39.6969 59.0601 39.5334 59.1458 39.3854 59.2471C39.2374 59.3483 38.9181 59.5352 38.6844 59.6599C38.5811 59.7184 38.4077 59.815 38.2047 59.9282C37.9486 60.0709 37.6453 60.2399 37.3759 60.392C37.0964 60.5473 36.7714 60.7303 36.4916 60.888C36.2803 61.007 36.0947 61.1116 35.974 61.1786C35.6858 61.3344 35.0472 61.5914 34.5565 61.7472C33.7543 62.0042 32.4147 62.4949 31.7916 62.7597C31.667 62.8142 31.3165 62.9388 31.0128 63.0401C30.7168 63.1335 29.9769 63.4217 29.3694 63.6709C28.7619 63.9202 28.24 64.1227 28.2011 64.1227C28.1154 64.1304 26.4643 64.7925 26.4098 64.847C26.3864 64.8703 26.7291 65.1274 27.173 65.4155C27.4354 65.5859 27.9318 65.914 28.4868 66.2809C28.8709 66.5348 29.2831 66.8073 29.6653 67.0589C30.5922 67.6664 31.371 68.1727 31.3866 68.1727C31.41 68.1727 31.924 68.5076 32.5393 68.9126C33.1468 69.3176 33.6608 69.6525 33.6842 69.6525C33.7076 69.6525 33.8322 69.7304 33.9646 69.8316C34.097 69.9329 34.6967 70.3223 35.2964 70.7039C36.5114 71.475 37.3682 72.028 39.9306 73.7103C40.8963 74.3412 41.8777 74.9798 42.1114 75.1278C42.2923 75.2424 42.7864 75.5626 43.3184 75.9075C43.4733 76.0079 43.6314 76.1103 43.7859 76.2104C44.4713 76.6621 45.2579 77.1684 45.5383 77.3319C45.8187 77.4955 46.2237 77.7681 46.434 77.9239C46.652 78.0874 46.9013 78.2198 46.9869 78.2198C47.0804 78.2198 47.4776 78.0095 47.8593 77.7525C48.2487 77.4955 48.5836 77.2852 48.607 77.2852C48.6303 77.2852 49.0353 77.0282 49.5104 76.7244C49.9777 76.4129 50.8968 75.8054 51.551 75.3848C52.5454 74.7384 53.7928 73.9234 54.9409 73.1733C55.2315 72.9834 55.5158 72.7977 55.7879 72.6199C56.4983 72.1607 57.288 71.6552 59.168 70.4517L59.6744 70.1276C61.4268 69.0138 64.9472 66.724 65.3211 66.4592C65.3834 66.4125 65.5703 66.2956 65.7261 66.2022C65.9519 66.0698 67.4473 65.0651 67.9146 64.7379C68.0003 64.6756 67.8056 64.3018 67.5252 64.0058C67.3305 63.8033 66.6295 62.9154 66.1466 62.2612C66.1246 62.2332 66.098 62.199 66.0687 62.1614C65.984 62.0527 65.8772 61.9156 65.7962 61.8173C65.0173 60.8826 63.483 58.9667 63.2571 58.6473C63.1325 58.4682 62.7119 57.9464 62.3225 57.4869C61.5982 56.6301 61.0763 56.007 60.3208 55.0569C60.2562 54.9781 60.1811 54.8862 60.1009 54.7881C59.872 54.5081 59.602 54.1779 59.4174 53.9587C59.1681 53.6549 58.5139 52.8527 57.9687 52.1673C57.4235 51.4819 56.8316 50.7498 56.6525 50.5395C56.4733 50.3214 56.1306 49.9009 55.897 49.5971C55.4686 49.0441 54.9935 48.4444 54.5652 47.9226C54.3627 47.6734 53.9576 47.1515 52.7426 45.586C52.4856 45.2511 51.9249 44.5658 51.5043 44.0595C49.9622 42.2136 48.2798 40.0952 47.9683 39.6045C47.7658 39.2774 47.2829 38.6231 46.9013 38.148C45.99 37.0187 45.6162 36.5436 45.3825 36.2321C45.2345 36.0296 44.923 35.6479 44.6971 35.3753C44.4635 35.1027 44.0818 34.6432 43.8404 34.3473C43.5912 34.0591 43.1394 33.5372 42.8279 33.179L42.2671 32.5403L42.454 32.3846C42.5553 32.2989 42.9603 32.0029 43.3575 31.7225C44.1831 31.1384 45.1644 30.4141 46.1224 29.6975C46.2981 29.5658 46.4738 29.4357 46.6188 29.3284C46.7823 29.2074 46.9067 29.1153 46.948 29.0822C47.0726 28.9888 47.1427 29.0277 47.6178 29.4483C47.906 29.6975 48.311 30.0246 48.5057 30.1726C48.7082 30.3206 49.5649 30.9982 50.4061 31.6836C52.9296 33.7164 54.0589 34.6198 54.1601 34.6588C54.2926 34.7133 56.9095 33.7008 58.3659 33.0388C58.5451 32.9609 58.7242 32.8908 58.7554 32.8908C58.7865 32.8908 58.9267 32.8363 59.0513 32.7662C59.1837 32.6961 59.651 32.5014 60.1028 32.33C60.3102 32.2478 60.5373 32.1589 60.7427 32.0786C60.9846 31.984 61.1963 31.9013 61.31 31.8549C61.5281 31.7693 61.9954 31.6057 62.3536 31.4811C62.7119 31.3565 63.1481 31.1929 63.3272 31.1072C63.4986 31.0216 64.1372 30.7568 64.7369 30.5153C65.1782 30.3369 65.4635 30.2214 65.7283 30.1142C66.1226 29.9546 66.4714 29.8134 67.2215 29.5106C67.6031 29.3548 67.9302 29.2146 67.9458 29.1991C67.9691 29.1835 67.7199 29.0043 67.4084 28.8018C67.0968 28.5993 66.7697 28.3735 66.684 28.2956C66.5984 28.2255 66.4037 28.0931 66.2557 28.0152C66.1077 27.9373 65.913 27.8127 65.8273 27.7426C65.7416 27.6725 65.4457 27.4778 65.1653 27.3142C64.8849 27.1429 64.5188 26.9092 64.3475 26.7924C64.0282 26.5588 62.9845 25.8967 61.9019 25.2191C61.5514 25.0011 60.6869 24.4481 59.9704 23.9808C59.373 23.6018 58.6274 23.1169 58.1353 22.7969C58.0307 22.7289 57.9375 22.6683 57.8597 22.6178L57.5886 22.4434C55.4016 21.0367 55.119 20.8549 48.4979 16.4882C48.0462 16.1923 47.5867 15.9119 47.4776 15.8652ZM61.4696 34.029C61.2976 33.9088 60.9751 33.6833 60.7181 33.4905C60.4299 33.288 60.1495 33.1245 60.095 33.1245C60.0327 33.1322 59.5576 33.3425 59.028 33.5918C58.4983 33.8488 58.0544 34.0591 58.0388 34.0591C57.9454 34.0591 56.7148 34.6822 56.2319 34.9703C55.9281 35.1573 55.6478 35.3052 55.6166 35.3052C55.5777 35.3052 55.0091 35.6168 54.3393 35.9984C53.6773 36.3723 52.5168 37.0265 51.7691 37.4471C50.3983 38.2103 48.9341 39.0749 48.7471 39.2228C48.6693 39.2852 48.6848 39.3475 48.8328 39.5032C48.9419 39.6123 49.2923 40.0562 49.6272 40.4846C49.9544 40.913 50.3438 41.388 50.484 41.5438C50.85 41.941 51.7301 43.1015 51.7924 43.2651C51.847 43.4131 52.1196 43.452 52.1974 43.3274C52.252 43.2339 53.1399 42.6498 53.5994 42.4006C53.9499 42.2136 54.6508 41.7853 54.8611 41.6295C55.1571 41.4192 56.263 40.7572 56.6525 40.5547C56.8783 40.4456 57.0964 40.3054 57.1509 40.2431C57.1977 40.1808 57.2833 40.1341 57.3379 40.1341C57.3924 40.1341 57.478 40.0796 57.5326 40.0173C57.5871 39.955 57.9687 39.6979 58.3815 39.4565C58.7943 39.2151 59.1837 38.9736 59.2538 38.9113C59.3161 38.8568 59.4252 38.8101 59.4875 38.8101C59.6043 38.8178 60.8505 39.5967 61.5904 40.1263C61.8318 40.3054 62.0577 40.4456 62.0888 40.4456C62.1122 40.4456 62.4938 40.6871 62.93 40.983C63.3661 41.279 64.1294 41.7853 64.6201 42.1046C64.8026 42.2234 65.024 42.367 65.2532 42.5157C65.6403 42.7668 66.0499 43.0325 66.3336 43.2183C67.3414 43.8781 67.3503 43.8832 67.7299 44.1007C67.7581 44.1168 67.7883 44.1341 67.8212 44.153C68.0548 44.2932 68.3975 44.5112 68.5922 44.6436C69.3321 45.1499 70.9366 46.1858 71.4039 46.4506C71.6765 46.6063 71.9101 46.7699 71.9179 46.8088C71.9491 46.8867 71.6219 47.1126 70.2668 47.9615C69.9708 48.1485 69.6826 48.3354 69.6437 48.3665C69.3166 48.6236 68.9817 48.8572 68.9349 48.8572C68.9038 48.8572 68.5221 49.0909 68.0938 49.3713C67.6576 49.6594 66.9021 50.1579 66.4114 50.4772C65.9208 50.7965 65.3834 51.1548 65.2198 51.2639C65.064 51.3729 64.7992 51.5442 64.6357 51.6377C63.997 52.0193 60.648 54.2702 60.648 54.3247C60.648 54.3559 61.0062 54.7843 61.4502 55.2749C62.2758 56.194 62.891 56.9261 63.2883 57.4791C63.6699 58.0009 63.7478 58.0165 64.3163 57.6271C65.5703 56.7781 66.6918 56.0304 67.1903 55.7111C70.2901 53.725 71.3805 53.0163 71.5129 52.9072C71.5986 52.8371 71.9491 52.6035 72.2918 52.3932C72.6345 52.1907 72.9304 51.996 72.9538 51.9726C73.0317 51.8947 75.7421 50.1034 75.7888 50.1034C75.8122 50.1034 76.3574 49.7607 76.9882 49.3323C77.6191 48.9117 78.2188 48.5223 78.3278 48.4678C78.4369 48.4133 78.6316 48.2809 78.7562 48.1796C78.8886 48.0706 79.3871 47.7435 79.8622 47.4475L80.7423 46.9023L80.5242 46.7154C80.3061 46.5285 77.5023 44.6436 77.3075 44.5424C77.2452 44.519 77.0505 44.3944 76.8792 44.2776C76.8446 44.255 76.8012 44.2266 76.7514 44.194C76.5434 44.0577 76.2225 43.8475 75.9524 43.6779L75.9295 43.6631C75.0854 43.1155 74.9452 43.0246 73.8027 42.2604C73.6293 42.1455 73.4326 42.0144 73.23 41.8794C72.7593 41.5659 72.2571 41.2312 71.9413 41.0298C71.7019 40.8771 71.4035 40.6828 71.1214 40.4992C70.8711 40.3362 70.6336 40.1816 70.4615 40.0718C70.3123 39.9734 69.9691 39.7457 69.512 39.4423C68.8475 39.0014 67.9421 38.4006 67.0423 37.8053C66.1375 37.199 65.2438 36.6038 64.6105 36.1821C64.1863 35.8996 63.879 35.6949 63.7634 35.6168C63.4674 35.4221 62.9066 35.0404 62.5094 34.76C62.3439 34.6432 62.1689 34.5209 62.0103 34.4102C61.7884 34.2552 61.5988 34.1227 61.5125 34.0591L61.4696 34.029ZM30.8881 36.824C30.6233 36.4813 30.3429 36.162 30.2806 36.1075C30.2105 36.0529 30.1249 36.014 30.0781 36.0062C30.0392 36.0062 29.6809 36.2321 29.2837 36.5047C28.8943 36.7773 28.4893 37.0499 28.3802 37.1044C28.2712 37.1667 27.8428 37.4471 27.4223 37.7275C27.2848 37.8174 27.1345 37.9162 26.9853 38.0143C26.6695 38.2219 26.3584 38.4264 26.1839 38.5375C25.9269 38.6932 25.6153 38.9035 25.4829 38.997C24.9845 39.3475 21.3161 41.7463 20.2568 42.4161C19.6883 42.7666 18.7848 43.3663 18.2786 43.7246C18.0449 43.8882 17.6944 44.1218 17.4997 44.2308C17.305 44.3477 16.5028 44.8695 15.7084 45.3913C14.9139 45.9209 14.1039 46.4428 13.9014 46.5518C13.6911 46.6686 13.5276 46.7933 13.5276 46.8322C13.5276 46.8711 13.6911 46.9958 13.9014 47.1126C14.1039 47.2294 14.4934 47.4864 14.7737 47.6889C15.0541 47.8914 15.3189 48.0706 15.3579 48.0862C15.4046 48.1017 15.8953 48.4211 16.4483 48.7871C16.7423 48.9791 17.0878 49.2053 17.4015 49.4108C17.6861 49.5971 17.9446 49.7664 18.115 49.8775C18.9016 50.3838 22.6869 52.8761 23.1853 53.2188C23.38 53.3512 24.4626 54.0521 25.5997 54.7843C26.7369 55.5164 27.8506 56.2485 28.0687 56.4198C28.2946 56.5912 28.5438 56.747 28.6139 56.7781C28.6918 56.8093 28.98 56.9884 29.2603 57.1831C29.5037 57.3521 29.9464 57.6501 30.3086 57.8939C30.3638 57.931 30.4171 57.9669 30.4676 58.0009C30.857 58.2501 31.4645 58.6629 31.8305 58.9199C34.6578 60.8593 34.8447 60.9683 35.0005 60.8437C35.0861 60.7658 35.3743 60.6023 35.9195 60.3219C36.0519 60.2596 36.5426 59.9714 37.0099 59.6832C37.485 59.395 38.0925 59.0368 38.3729 58.8888C39.2997 58.3825 40.2032 57.8763 40.3979 57.7439C40.4991 57.6738 40.8418 57.4791 41.1534 57.3077C41.4649 57.1364 42.0646 56.7781 42.493 56.5055C42.9136 56.2407 43.2796 56.0226 43.303 56.0226C43.3264 56.0226 43.7236 55.7968 44.1831 55.5164C44.6504 55.236 45.0632 55.0101 45.1099 55.0101C45.1567 55.0101 45.2345 54.9712 45.2891 54.9167C45.3592 54.8466 45.3124 54.7453 45.0866 54.4727C44.9308 54.278 44.7594 54.0755 44.7127 54.0366C44.666 53.9898 44.4868 53.764 44.3155 53.5303C44.1364 53.2967 43.8248 52.9072 43.6223 52.6658C43.412 52.4243 42.9837 51.8869 42.6643 51.4741C42.3528 51.0614 42.0646 50.7265 42.0257 50.7265C41.9478 50.7265 41.7064 50.8744 40.7873 51.4741C40.5069 51.6533 40.0318 51.9259 39.7281 52.0816C39.4165 52.2374 39.1517 52.4166 39.1284 52.4711C39.105 52.5334 38.8791 52.6736 38.6299 52.7904C38.186 53.0007 36.6516 53.8964 35.4678 54.6363C35.1329 54.8388 34.8291 55.0101 34.7824 55.0101C34.7045 55.0101 33.5284 54.2624 32.3368 53.4524C31.9552 53.1876 31.1841 52.6814 30.6233 52.3231C30.0703 51.9648 29.5018 51.591 29.3616 51.4897C29.2214 51.3885 28.5126 50.9212 27.7805 50.4539C26.4798 49.6205 24.9922 48.6469 23.2009 47.4631C22.718 47.1437 22.3286 46.8634 22.3286 46.8322C22.3286 46.8011 22.6323 46.5908 22.9984 46.3571C23.3722 46.1235 24.1355 45.6328 24.6963 45.2667C25.0555 45.0323 25.6191 44.67 26.1683 44.317C26.4765 44.1189 26.7802 43.9237 27.0406 43.7558C28.131 43.0626 29.7121 42.0345 31.371 40.9363C31.519 40.8429 31.6748 40.7572 31.7059 40.7572C31.7604 40.7572 31.8617 40.6793 32.3446 40.2977C32.3913 40.2587 32.5315 40.173 32.6561 40.1107C32.7807 40.0406 32.9365 39.9238 33.0066 39.8381C33.1234 39.6979 33.1001 39.6434 32.5627 38.9191C32.2589 38.4985 31.8617 37.9923 31.6903 37.7976C31.519 37.6028 31.1607 37.1667 30.8881 36.824Z" fill="white"/>
<defs>
<linearGradient id="paint0_linear_159_2236" x1="47" y1="0" x2="47" y2="94" gradientUnits="userSpaceOnUse">
<stop stop-color="#0026BD"/>
<stop offset="1" stop-color="#FF4489"/>
</linearGradient>
</defs>
</svg>
