<svg width="85" height="84" viewBox="0 0 85 84" fill="none" xmlns="http://www.w3.org/2000/svg">
<rect width="85" height="84" rx="42" fill="#EEF1FF"/>
<path d="M58.9387 37.6437L51.0074 29.7125L46.2262 34.4375L41.4449 29.7125L47.8012 23.3C48.2512 22.85 48.7574 22.5222 49.3199 22.3167C49.8824 22.1112 50.4449 22.0077 51.0074 22.0062C51.6074 22.0062 52.1797 22.1097 52.7242 22.3167C53.2687 22.5237 53.7464 22.8515 54.1574 23.3L58.9387 28.0812C59.6137 28.7187 60.1109 29.4597 60.4304 30.3042C60.7499 31.1487 60.9089 32.0015 60.9074 32.8625C60.9059 33.7235 60.7469 34.5672 60.4304 35.3937C60.1139 36.2202 59.6167 36.9702 58.9387 37.6437ZM27.9449 47.9937C27.2699 47.3187 26.9324 46.5222 26.9324 45.6042C26.9324 44.6862 27.2699 43.889 27.9449 43.2125L33.4574 37.6437L38.2387 42.425L32.6699 47.9937C32.0324 48.6687 31.2547 49.0062 30.3367 49.0062C29.4187 49.0062 28.6214 48.6687 27.9449 47.9937ZM25.5262 64.7C25.1137 64.25 24.7949 63.7535 24.5699 63.2105C24.3449 62.6675 24.2324 62.0952 24.2324 61.4937C24.2324 60.8922 24.3359 60.3207 24.5429 59.7792C24.7499 59.2377 25.0777 58.7405 25.5262 58.2875L41.4449 42.425L34.3012 35.225C33.6262 34.5875 33.2887 33.8097 33.2887 32.8917C33.2887 31.9737 33.6262 31.1765 34.3012 30.5C34.9387 29.825 35.7262 29.4875 36.6637 29.4875C37.6012 29.4875 38.4074 29.825 39.0824 30.5L46.2262 37.6437L49.4324 34.4375L55.7324 40.85C56.1824 41.3 56.4074 41.825 56.4074 42.425C56.4074 43.025 56.1824 43.55 55.7324 44C55.2824 44.45 54.7574 44.675 54.1574 44.675C53.5574 44.675 53.0324 44.45 52.5824 44L31.8824 64.7C31.4324 65.15 30.9352 65.4785 30.3907 65.6855C29.8462 65.8925 29.2934 65.9952 28.7324 65.9937C28.1714 65.9922 27.6089 65.8797 27.0449 65.6562C26.4809 65.4327 25.9747 65.114 25.5262 64.7Z" fill="url(#paint0_linear_156_5875)"/>
<defs>
<linearGradient id="paint0_linear_156_5875" x1="64.4462" y1="13.9033" x2="0.0655305" y2="72.4027" gradientUnits="userSpaceOnUse">
<stop stop-color="#0026BD"/>
<stop offset="1" stop-color="#FF4489"/>
</linearGradient>
</defs>
</svg>
