<svg width="86" height="84" viewBox="0 0 86 84" fill="none" xmlns="http://www.w3.org/2000/svg">
<rect x="0.430054" width="85" height="84" rx="42" fill="#EEF1FF"/>
<g clip-path="url(#clip0_156_5907)">
<path d="M44.4955 34.6875C44.4955 32.61 45.3208 30.6175 46.7898 29.1485C48.2588 27.6795 50.2513 26.8542 52.3288 26.8542H54.2871V20.9792H32.7455V26.8542C33.7842 26.8542 34.7805 27.2668 35.515 28.0013C36.2495 28.7358 36.6621 29.7321 36.6621 30.7708V42.5208C36.6621 43.5596 36.2495 44.5558 35.515 45.2903C34.7805 46.0249 33.7842 46.4375 32.7455 46.4375V66.0208H54.2871V52.3125L54.0032 52.1421C47.433 47.4167 44.4955 42.5208 44.4955 34.6875ZM44.4955 34.6875H36.6621M50.3705 27.1009V29.7917C50.3705 31.0901 50.8863 32.3354 51.8044 33.2535C52.7226 34.1717 53.9679 34.6875 55.2663 34.6875M60.1621 20V27.8333" stroke="url(#paint0_linear_156_5907)" stroke-width="2"/>
</g>
<defs>
<linearGradient id="paint0_linear_156_5907" x1="62.8076" y1="11.5225" x2="0.997557" y2="51.6529" gradientUnits="userSpaceOnUse">
<stop stop-color="#0026BD"/>
<stop offset="1" stop-color="#FF4489"/>
</linearGradient>
<clipPath id="clip0_156_5907">
<rect width="47" height="47" fill="white" transform="translate(20.0164 20)"/>
</clipPath>
</defs>
</svg>
