<svg width="86" height="84" viewBox="0 0 86 84" fill="none" xmlns="http://www.w3.org/2000/svg">
<rect x="0.430054" width="85" height="84" rx="42" fill="#EEF1FF"/>
<path d="M61.305 46.0833C61.305 44.9604 60.3863 44.0417 59.2633 44.0417H55.18V48.125H59.2633C60.3863 48.125 61.305 47.2063 61.305 46.0833ZM59.2633 52.2083H55.18V56.2917H59.2633C60.3863 56.2917 61.305 55.3729 61.305 54.25C61.305 53.1271 60.3863 52.2083 59.2633 52.2083ZM42.93 46.0833H38.8467V54.25H42.93C42.93 56.4958 44.7675 58.3333 47.0133 58.3333H53.1383V42H47.0133C44.7675 42 42.93 43.8375 42.93 46.0833Z" fill="url(#paint0_linear_156_5917)"/>
<path d="M28.6384 44.0417C28.6384 41.7959 30.4759 39.9584 32.7217 39.9584H35.7842C39.7246 39.9584 42.9301 36.7529 42.9301 32.8125C42.9301 28.8721 39.7246 25.6667 35.7842 25.6667H28.6384C27.5155 25.6667 26.5967 26.5854 26.5967 27.7084C26.5967 28.8313 27.5155 29.75 28.6384 29.75H35.7842C37.4788 29.75 38.8467 31.1179 38.8467 32.8125C38.8467 34.5071 37.4788 35.875 35.7842 35.875H32.7217C28.2096 35.875 24.5551 39.5296 24.5551 44.0417C24.5551 48.5538 28.2096 52.2084 32.7217 52.2084H36.8051V48.125H32.7217C30.4759 48.125 28.6384 46.2875 28.6384 44.0417Z" fill="url(#paint1_linear_156_5917)"/>
<defs>
<linearGradient id="paint0_linear_156_5917" x1="63.472" y1="38.9912" x2="41.2954" y2="72.223" gradientUnits="userSpaceOnUse">
<stop stop-color="#0026BD"/>
<stop offset="1" stop-color="#FF4489"/>
</linearGradient>
<linearGradient id="paint1_linear_156_5917" x1="44.7031" y1="20.7774" x2="7.1769" y2="49.0906" gradientUnits="userSpaceOnUse">
<stop stop-color="#0026BD"/>
<stop offset="1" stop-color="#FF4489"/>
</linearGradient>
</defs>
</svg>
