<svg width="86" height="84" viewBox="0 0 86 84" fill="none" xmlns="http://www.w3.org/2000/svg">
<rect x="0.430054" width="85" height="84" rx="42" fill="#EEF1FF"/>
<path d="M43.9051 15.6547C41.7723 15.6547 40.0254 17.3812 40.0254 19.5344V22.2765C40.0254 22.786 40.1257 23.2905 40.3207 23.7612C40.5157 24.2319 40.8015 24.6596 41.1617 25.0199C41.522 25.3802 41.9497 25.6659 42.4204 25.8609C42.8911 26.0559 43.3956 26.1562 43.9051 26.1562C44.4146 26.1562 44.9191 26.0559 45.3898 25.8609C45.8605 25.6659 46.2882 25.3802 46.6484 25.0199C47.0087 24.6596 47.2945 24.2319 47.4894 23.7612C47.6844 23.2905 47.7848 22.786 47.7848 22.2765V19.5344C47.7778 18.5075 47.3669 17.5247 46.6408 16.7986C45.9147 16.0726 44.9319 15.6616 43.9051 15.6547Z" fill="url(#paint0_linear_156_5970)"/>
<path d="M38.4817 34.0781V22.825C38.4817 25.8109 40.9192 28.2484 43.9051 28.2484C46.891 28.2484 49.3285 25.8109 49.3285 22.825V37.1656H38.4817V39.7656H49.3285V40.1718H49.361C49.5092 41.499 50.1406 42.7253 51.1348 43.6169C52.129 44.5084 53.4165 45.003 54.752 45.0062C56.0874 45.003 57.3749 44.5084 58.3692 43.6169C59.3634 42.7253 59.9948 41.499 60.1429 40.1718H60.1754V47.397H49.3895V49.997H60.1754V57.4639L62.3163 54.4332L60.866 50.4317C60.7776 50.1793 60.7922 49.9022 60.9068 49.6605C61.0215 49.4189 61.2267 49.2322 61.4781 49.141C61.7296 49.0498 62.0068 49.0615 62.2497 49.1734C62.4926 49.2854 62.6815 49.4886 62.7754 49.739L63.7443 52.4101L65.2109 50.3342L63.7728 46.4139C63.6902 46.1637 63.708 45.8912 63.8226 45.654C63.9371 45.4167 64.1394 45.2333 64.3866 45.1423C64.6339 45.0514 64.9068 45.0601 65.1477 45.1666C65.3887 45.2731 65.5789 45.469 65.6781 45.7131L66.6348 48.3171L68.2842 45.9853C68.4448 45.7798 68.6782 45.6439 68.9363 45.6059C69.1943 45.5678 69.457 45.6305 69.6701 45.7809C69.8832 45.9313 70.0302 46.1579 70.0808 46.4138C70.1313 46.6696 70.0815 46.9351 69.9417 47.1553L68.2923 49.4912L71.071 49.5156C71.2044 49.5166 71.3363 49.544 71.4591 49.596C71.5819 49.648 71.6933 49.7237 71.7868 49.8188C71.8804 49.9139 71.9543 50.0264 72.0043 50.15C72.0544 50.2737 72.0796 50.406 72.0785 50.5393C72.0775 50.6727 72.0501 50.8046 71.9981 50.9274C71.9461 51.0502 71.8704 51.1615 71.7753 51.2551C71.6803 51.3487 71.5677 51.4226 71.4441 51.4726C71.3204 51.5227 71.1882 51.5479 71.0548 51.5468L66.8663 51.5103L65.4506 53.5151L68.146 53.5375C68.4154 53.5396 68.6729 53.6487 68.8618 53.8407C69.0508 54.0327 69.1557 54.2918 69.1535 54.5612C69.1514 54.8306 69.0423 55.088 68.8503 55.277C68.6583 55.4659 68.3991 55.5709 68.1298 55.5687L64.0267 55.5342L62.1051 58.25H60.1734H63.3828C63.8703 58.25 64.2359 58.6359 64.2359 59.1031V69.6453C64.2359 70.275 63.7281 70.8031 63.0781 70.8031H24.7098C24.0801 70.8031 23.552 70.275 23.552 69.6453V59.1031C23.552 58.6359 23.9379 58.25 24.4051 58.25H25.6848L25.5223 57.9595L23.2818 57.1267L21.2587 59.0117C21.1627 59.1097 21.0479 59.1872 20.9211 59.2396C20.7943 59.2921 20.6583 59.3183 20.5211 59.3166C20.3839 59.315 20.2485 59.2856 20.123 59.2303C19.9975 59.1749 19.8846 59.0947 19.7909 58.9944C19.6973 58.8942 19.6249 58.776 19.5782 58.6471C19.5314 58.5181 19.5113 58.381 19.519 58.244C19.5267 58.1071 19.5621 57.9731 19.623 57.8502C19.6839 57.7273 19.7691 57.618 19.8734 57.5289L21.1531 56.3345L19.8104 55.8348L17.0276 57.8335C16.8415 57.9609 16.613 58.0104 16.3908 57.9714C16.1687 57.9325 15.9707 57.8081 15.839 57.625C15.7074 57.4419 15.6527 57.2146 15.6865 56.9916C15.7203 56.7687 15.8401 56.5678 16.0201 56.432L17.8604 55.1096L16.2517 54.5104C15.999 54.4167 15.7939 54.2264 15.6815 53.9815C15.5692 53.7365 15.5587 53.457 15.6524 53.2043C15.7462 52.9517 15.9364 52.7466 16.1814 52.6342C16.4263 52.5218 16.7059 52.5114 16.9585 52.6051L18.4292 53.1535L17.8848 51.165C17.8549 51.0556 17.8469 50.9414 17.8611 50.8289C17.8754 50.7165 17.9116 50.6079 17.9678 50.5094C18.024 50.411 18.0991 50.3245 18.1887 50.2551C18.2783 50.1856 18.3807 50.1345 18.4901 50.1046C18.5995 50.0748 18.7136 50.0667 18.8261 50.081C18.9386 50.0952 19.0472 50.1315 19.1456 50.1877C19.2441 50.2439 19.3305 50.319 19.4 50.4086C19.4694 50.4982 19.5205 50.6006 19.5504 50.71L20.4218 53.895L23.9968 55.2234L21.4618 50.6815C21.3898 50.5921 21.3335 50.4912 21.2953 50.3829L19.2721 46.7612C19.207 46.6446 19.1656 46.5164 19.15 46.3838C19.1345 46.2512 19.1453 46.1168 19.1817 45.9884C19.2181 45.8599 19.2794 45.7399 19.3622 45.6352C19.445 45.5304 19.5476 45.443 19.6642 45.3779C19.7807 45.3128 19.909 45.2713 20.0416 45.2558C20.1742 45.2403 20.3085 45.251 20.437 45.2874C20.5654 45.3239 20.6855 45.3852 20.7902 45.468C20.8949 45.5508 20.9824 45.6534 21.0474 45.77L22.3028 48.0206L23.5804 45.9385C23.6485 45.8215 23.7393 45.7192 23.8474 45.6378C23.9556 45.5563 24.079 45.4973 24.2103 45.4642C24.3416 45.4312 24.4782 45.4247 24.612 45.4452C24.7459 45.4657 24.8743 45.5127 24.9897 45.5835C25.1051 45.6544 25.2052 45.7476 25.284 45.8577C25.3629 45.9677 25.4189 46.0925 25.4489 46.2245C25.4788 46.3566 25.482 46.4933 25.4584 46.6266C25.4347 46.76 25.3846 46.8872 25.311 47.0009L23.4382 50.0539L24.3888 51.7601L25.0835 50.6287C25.2247 50.3992 25.4512 50.2352 25.7133 50.1727C25.9754 50.1102 26.2515 50.1544 26.481 50.2956C26.7105 50.4367 26.8746 50.6633 26.937 50.9253C26.9995 51.1874 26.9553 51.4636 26.8142 51.6931L25.5243 53.7934L27.6348 57.5756V46.3062H38.4817V43.7062H27.6348V34.0781H27.6673C27.8154 35.4053 28.4468 36.6315 29.441 37.5231C30.4352 38.4147 31.7228 38.9092 33.0582 38.9125C34.3937 38.9092 35.6812 38.4147 36.6754 37.5231C37.6696 36.6315 38.301 35.4053 38.4492 34.0781H38.4817ZM38.4817 52.5625V55.1625H49.3285V52.5625H38.4817ZM25.5832 60.2812V65.5828H62.2067V60.2812H25.5832Z" fill="url(#paint1_linear_156_5970)"/>
<path d="M33.0583 26.3187C30.9255 26.3187 29.1786 28.0453 29.1786 30.1984V32.9406C29.1786 33.9696 29.5873 34.9564 30.3149 35.684C31.0425 36.4115 32.0293 36.8203 33.0583 36.8203C34.0872 36.8203 35.074 36.4115 35.8016 35.684C36.5292 34.9564 36.938 33.9696 36.938 32.9406V30.1984C36.931 29.1716 36.5201 28.1888 35.794 27.4627C35.0679 26.7366 34.0851 26.3256 33.0583 26.3187ZM54.752 32.4125C52.6192 32.4125 50.8723 34.139 50.8723 36.2922V39.0344C50.8723 40.0633 51.2811 41.0501 52.0087 41.7777C52.7363 42.5053 53.7231 42.914 54.752 42.914C55.781 42.914 56.7678 42.5053 57.4954 41.7777C58.223 41.0501 58.6317 40.0633 58.6317 39.0344V36.2922C58.6248 35.2653 58.2138 34.2825 57.4877 33.5565C56.7616 32.8304 55.7788 32.4194 54.752 32.4125Z" fill="url(#paint2_linear_156_5970)"/>
<defs>
<linearGradient id="paint0_linear_156_5970" x1="48.5335" y1="13.7202" x2="33.448" y2="25.8677" gradientUnits="userSpaceOnUse">
<stop stop-color="#0026BD"/>
<stop offset="1" stop-color="#FF4489"/>
</linearGradient>
<linearGradient id="paint1_linear_156_5970" x1="77.5293" y1="13.9869" x2="9.12262" y2="101.763" gradientUnits="userSpaceOnUse">
<stop stop-color="#0026BD"/>
<stop offset="1" stop-color="#FF4489"/>
</linearGradient>
<linearGradient id="paint2_linear_156_5970" x1="61.4737" y1="23.2617" x2="41.5646" y2="61.7698" gradientUnits="userSpaceOnUse">
<stop stop-color="#0026BD"/>
<stop offset="1" stop-color="#FF4489"/>
</linearGradient>
</defs>
</svg>
