<svg width="86" height="84" viewBox="0 0 86 84" fill="none" xmlns="http://www.w3.org/2000/svg">
<rect x="0.430054" width="85" height="84" rx="42" fill="#EEF1FF"/>
<path d="M62.18 25.3333H39.2633C38.7108 25.3333 38.1809 25.5528 37.7902 25.9435C37.3995 26.3342 37.18 26.8641 37.18 27.4166V50.3333C37.18 50.8858 37.3995 51.4158 37.7902 51.8065C38.1809 52.1972 38.7108 52.4166 39.2633 52.4166H62.18C62.7326 52.4166 63.2625 52.1972 63.6532 51.8065C64.0439 51.4158 64.2633 50.8858 64.2633 50.3333V27.4166C64.2633 26.8641 64.0439 26.3342 63.6532 25.9435C63.2625 25.5528 62.7326 25.3333 62.18 25.3333ZM22.5967 52.4166H37.18V37.8333H29.8883L22.5967 44.5646V52.4166Z" stroke="url(#paint0_linear_156_5948)" stroke-width="2" stroke-linejoin="round"/>
<path d="M37.18 54.5C37.18 55.6051 36.741 56.6649 35.9596 57.4463C35.1782 58.2277 34.1184 58.6667 33.0133 58.6667C31.9083 58.6667 30.8485 58.2277 30.0671 57.4463C29.2857 56.6649 28.8467 55.6051 28.8467 54.5M60.0967 54.5C60.0967 55.6051 59.6577 56.6649 58.8763 57.4463C58.0949 58.2277 57.0351 58.6667 55.93 58.6667C54.8249 58.6667 53.7651 58.2277 52.9837 57.4463C52.2023 56.6649 51.7633 55.6051 51.7633 54.5" stroke="url(#paint1_linear_156_5948)" stroke-width="2" stroke-linecap="round" stroke-linejoin="round"/>
<defs>
<linearGradient id="paint0_linear_156_5948" x1="68.2838" y1="20.3443" x2="33.2462" y2="79.09" gradientUnits="userSpaceOnUse">
<stop stop-color="#0026BD"/>
<stop offset="1" stop-color="#FF4489"/>
</linearGradient>
<linearGradient id="paint1_linear_156_5948" x1="63.112" y1="53.7325" x2="61.6351" y2="65.8045" gradientUnits="userSpaceOnUse">
<stop stop-color="#0026BD"/>
<stop offset="1" stop-color="#FF4489"/>
</linearGradient>
</defs>
</svg>
