<svg width="86" height="84" viewBox="0 0 86 84" fill="none" xmlns="http://www.w3.org/2000/svg">
<rect x="0.430054" width="85" height="84" rx="42" fill="#EEF1FF"/>
<path d="M36.8676 24.75C34.1994 24.75 32.0076 26.2125 30.8019 28.5C30.6312 28.8202 30.4839 29.1523 30.3613 29.4937L27.9463 36H26.9113C25.6738 36 24.6801 36.9938 24.6801 38.2313V39.3937C24.6876 39.9 24.8582 40.365 25.1413 40.7362C24.2826 41.4862 23.6282 42.4369 23.2326 43.5H26.5551C27.5863 43.5 28.4301 44.3438 28.4301 45.375V47.25C28.4301 48.2812 27.5863 49.125 26.5551 49.125H22.8051V58.5C22.8051 59.5312 23.6488 60.375 24.6801 60.375H28.4301C29.4613 60.375 30.3051 59.5312 30.3051 58.5V56.625H40.7188C40.7888 56.6375 40.8613 56.6438 40.9363 56.6438H45.9426C46.0176 56.6438 46.0901 56.6375 46.1601 56.625H56.5551V58.5C56.5551 59.5312 57.3988 60.375 58.4301 60.375H62.1801C63.2113 60.375 64.0551 59.5312 64.0551 58.5V49.125H60.3051C59.2738 49.125 58.4301 48.2812 58.4301 47.25V45.375C58.4301 44.3438 59.2738 43.5 60.3051 43.5H63.6276C63.2314 42.4357 62.576 41.487 61.7207 40.74C62.0019 40.365 62.1707 39.9019 62.1801 39.3956V38.2331C62.1801 36.9956 61.1919 36.0019 59.9619 36.0019H58.8013L56.3863 29.4937C56.2582 29.1542 56.1104 28.8224 55.9438 28.5C54.7513 26.2125 52.6626 24.75 49.9926 24.75H36.8676ZM60.5863 54.7387H47.1988V54.1313C47.1988 53.4375 46.6363 52.875 45.9426 52.875H40.9363C40.2426 52.875 39.6801 53.4375 39.6801 54.1313V54.7387H26.2738C25.3318 54.6648 24.4521 54.2393 23.8095 53.5466C23.1668 52.8539 22.8083 51.9449 22.8051 51H64.0551C64.0549 51.9458 63.6974 52.8565 63.0541 53.5498C62.4109 54.2432 61.5294 54.6678 60.5863 54.7387ZM32.1219 30.1425C32.3347 29.5511 32.639 28.9969 33.0238 28.5H53.7369C54.0944 28.97 54.3919 29.52 54.6294 30.15L57.5001 37.875H29.2494L32.1182 30.1463L32.1219 30.1425ZM33.1176 49.125C32.3716 49.125 31.6563 48.8287 31.1288 48.3012C30.6014 47.7738 30.3051 47.0584 30.3051 46.3125C30.3051 45.5666 30.6014 44.8512 31.1288 44.3238C31.6563 43.7963 32.3716 43.5 33.1176 43.5C33.8635 43.5 34.5788 43.7963 35.1063 44.3238C35.6337 44.8512 35.9301 45.5666 35.9301 46.3125C35.9301 47.0584 35.6337 47.7738 35.1063 48.3012C34.5788 48.8287 33.8635 49.125 33.1176 49.125ZM53.7426 49.125C52.9966 49.125 52.2813 48.8287 51.7538 48.3012C51.2264 47.7738 50.9301 47.0584 50.9301 46.3125C50.9301 45.5666 51.2264 44.8512 51.7538 44.3238C52.2813 43.7963 52.9966 43.5 53.7426 43.5C54.4885 43.5 55.2038 43.7963 55.7313 44.3238C56.2587 44.8512 56.5551 45.5666 56.5551 46.3125C56.5551 47.0584 56.2587 47.7738 55.7313 48.3012C55.2038 48.8287 54.4885 49.125 53.7426 49.125ZM47.1801 43.5C48.2113 43.5 49.0551 44.3438 49.0551 45.375V47.25C49.0551 48.2812 48.2113 49.125 47.1801 49.125H39.6801C38.6488 49.125 37.8051 48.2812 37.8051 47.25V45.375C37.8051 44.3438 38.6488 43.5 39.6801 43.5H47.1801Z" fill="url(#paint0_linear_156_5993)"/>
<defs>
<linearGradient id="paint0_linear_156_5993" x1="68.0353" y1="18.1875" x2="17.0406" y2="82.5376" gradientUnits="userSpaceOnUse">
<stop stop-color="#0026BD"/>
<stop offset="1" stop-color="#FF4489"/>
</linearGradient>
</defs>
</svg>
