<svg width="1440" height="804" viewBox="0 0 1440 804" fill="none" xmlns="http://www.w3.org/2000/svg">
<rect x="0.00146484" width="1439.01" height="804" fill="white"/>
<path opacity="0.28" d="M-1 804C689.886 757.748 707.805 53.1408 1441 0V804H997.499H-1Z" fill="#A9BAFF"/>
<path opacity="0.31" d="M-1 804C689.886 768.504 707.805 227.759 1441 186.977V804H997.499H-1Z" fill="#A9BAFF"/>
<path opacity="0.39" d="M-1 804C689.886 778.298 707.805 386.754 1441 357.224V804H997.499H-1Z" fill="#EEF1FF"/>
<path opacity="0.35" d="M-1 804C689.886 788.205 707.805 547.587 1441 529.439V804H997.499H-1Z" fill="#EEF1FF"/>
<path opacity="0.22" d="M-1 804C1043.43 738.066 676.213 626.372 1441 672.132V804H997.499H-1Z" fill="#A9BAFF"/>
</svg>
