<svg width="55" height="54" viewBox="0 0 55 54" fill="none" xmlns="http://www.w3.org/2000/svg">
<path d="M43.9387 20.6437L36.0074 12.7125L31.2262 17.4375L26.4449 12.7125L32.8012 6.29998C33.2512 5.84998 33.7574 5.52223 34.3199 5.31673C34.8824 5.11123 35.4449 5.00773 36.0074 5.00623C36.6074 5.00623 37.1797 5.10973 37.7242 5.31673C38.2687 5.52373 38.7464 5.85148 39.1574 6.29998L43.9387 11.0812C44.6137 11.7187 45.1109 12.4597 45.4304 13.3042C45.7499 14.1487 45.9089 15.0015 45.9074 15.8625C45.9059 16.7235 45.7469 17.5672 45.4304 18.3937C45.1139 19.2202 44.6167 19.9702 43.9387 20.6437ZM12.9449 30.9937C12.2699 30.3187 11.9324 29.5222 11.9324 28.6042C11.9324 27.6862 12.2699 26.889 12.9449 26.2125L18.4574 20.6437L23.2387 25.425L17.6699 30.9937C17.0324 31.6687 16.2547 32.0062 15.3367 32.0062C14.4187 32.0062 13.6214 31.6687 12.9449 30.9937ZM10.5262 47.7C10.1137 47.25 9.79492 46.7535 9.56992 46.2105C9.34492 45.6675 9.23242 45.0952 9.23242 44.4937C9.23242 43.8922 9.33592 43.3207 9.54292 42.7792C9.74992 42.2377 10.0777 41.7405 10.5262 41.2875L26.4449 25.425L19.3012 18.225C18.6262 17.5875 18.2887 16.8097 18.2887 15.8917C18.2887 14.9737 18.6262 14.1765 19.3012 13.5C19.9387 12.825 20.7262 12.4875 21.6637 12.4875C22.6012 12.4875 23.4074 12.825 24.0824 13.5L31.2262 20.6437L34.4324 17.4375L40.7324 23.85C41.1824 24.3 41.4074 24.825 41.4074 25.425C41.4074 26.025 41.1824 26.55 40.7324 27C40.2824 27.45 39.7574 27.675 39.1574 27.675C38.5574 27.675 38.0324 27.45 37.5824 27L16.8824 47.7C16.4324 48.15 15.9352 48.4785 15.3907 48.6855C14.8462 48.8925 14.2934 48.9952 13.7324 48.9937C13.1714 48.9922 12.6089 48.8797 12.0449 48.6562C11.4809 48.4327 10.9747 48.114 10.5262 47.7Z" fill="url(#paint0_linear_156_5877)"/>
<defs>
<linearGradient id="paint0_linear_156_5877" x1="49.4462" y1="-3.09674" x2="-14.9345" y2="55.4027" gradientUnits="userSpaceOnUse">
<stop stop-color="#0026BD"/>
<stop offset="1" stop-color="#FF4489"/>
</linearGradient>
</defs>
</svg>
